<?xml version="1.0" encoding="utf-8"?>
<!-- Generator: Adobe Illustrator 25.3.1, SVG Export Plug-In . SVG Version: 6.00 Build 0)  -->
<svg version="1.1" id="Layer_1" xmlns="http://www.w3.org/2000/svg" xmlns:xlink="http://www.w3.org/1999/xlink" x="0px" y="0px"
	 viewBox="0 0 614.2 85.5" style="enable-background:new 0 0 614.2 85.5;" xml:space="preserve">
<style type="text/css">
	.st0{fill:#979C7E;}
	.st1{fill:#676F52;}
	.st2{fill:#8B9373;}
	.st3{fill:#CEC8B8;}
	.st4{fill:#CACEAA;}
	.st5{fill:#9DA584;}
</style>
<g>
	<g>
		<path class="st0" d="M110.8,53.9c0,8.2-6,12.8-18,12.8H70.7v-48h20.7c10.7,0,16.9,4.5,16.9,12.3c0.2,4.8-2.8,9.2-7.3,10.9
			C107.1,43.4,110.8,47.4,110.8,53.9z M75.8,22.9v17.4h15.2c7.7,0,12.1-3,12.1-8.7s-4.5-8.7-12.1-8.7L75.8,22.9z M105.8,53.5
			c0-6.2-4.6-9-13-9h-17v18h16.9C101.1,62.6,105.7,59.8,105.8,53.5L105.8,53.5z"/>
		<path class="st0" d="M148.2,62.4v4.4h-33.7v-3.5l20-19.5c5.4-5.3,6.4-8.6,6.4-11.9c0-5.6-3.9-9-11.2-9c-5.6,0-9.9,1.7-13.1,5.3
			l-3.5-3c3.7-4.4,9.7-6.9,17-6.9c9.7,0,15.9,4.9,15.9,13c0,4.6-1.4,8.7-7.9,15l-16.3,16H148.2z"/>
		<path class="st0" d="M151.6,42.8c0-14.1,10.7-24.4,25.2-24.4c7,0,13.3,2.3,17.6,7l-3.2,3.2c-3.7-3.8-8.9-5.9-14.2-5.7
			c-11.6,0-20.3,8.5-20.3,19.9s8.7,19.9,20.3,19.9c5.3,0.2,10.5-1.9,14.2-5.8l3.2,3.2c-4.2,4.7-10.6,7.1-17.6,7.1
			C162.3,67.2,151.6,56.8,151.6,42.8z"/>
		<path class="st1" d="M222.8,23.1V42h24.8v4.4h-24.8v20.4h-5.1v-48h32.9v4.4L222.8,23.1z"/>
		<path class="st1" d="M258,46.3V18.7h5.1V46c0,11.4,5.4,16.6,14.7,16.6s14.7-5.2,14.7-16.6V18.7h4.9v27.5
			c0,13.8-7.4,20.9-19.7,20.9S258,60,258,46.3z"/>
		<path class="st1" d="M342.7,66.8l-11-15.4c-1.3,0.1-2.6,0.2-3.9,0.2H315v15.2h-5v-48h18c12.2,0,19.6,6.2,19.6,16.5
			c0,7.5-4,12.8-11,15.1l11.7,16.5L342.7,66.8z M342.4,35.2c0-7.7-5.1-12.1-14.7-12.1H315v24.1h12.8
			C337.4,47.2,342.4,42.8,342.4,35.2z"/>
		<path class="st1" d="M396.9,18.7v48h-4.2l-30.9-39v39h-5.1v-48h4.2l30.9,39v-39L396.9,18.7z"/>
		<path class="st1" d="M409.8,18.7h5.1v48h-5.1V18.7z"/>
		<path class="st1" d="M437.1,23.1h-16.9v-4.4H459v4.4h-16.9v43.6h-5.1V23.1z"/>
		<path class="st1" d="M463,46.3V18.7h5.1V46c0,11.4,5.4,16.6,14.7,16.6s14.7-5.2,14.7-16.6V18.7h4.9v27.5
			c0,13.8-7.4,20.9-19.7,20.9S463,60,463,46.3z"/>
		<path class="st1" d="M547.8,66.8l-11-15.4c-1.3,0.1-2.6,0.2-3.8,0.2h-12.9v15.2H515v-48h18c12.2,0,19.6,6.2,19.6,16.5
			c0,7.5-4,12.8-11,15.1l11.7,16.5L547.8,66.8z M547.5,35.2c0-7.7-5.1-12.1-14.7-12.1h-12.8v24.1h12.8
			C542.4,47.2,547.5,42.8,547.5,35.2z"/>
		<path class="st1" d="M595.8,62.4v4.4h-34v-48h32.9v4.4H567v17.1h24.8v4.3H567v17.8H595.8z"/>
	</g>
	<g>
		<polygon class="st1" points="21.7,42.5 23.8,49.6 36.7,46.6 		"/>
		<polygon class="st2" points="47.6,21.5 38.3,44.1 47.6,34.8 		"/>
		<polygon class="st3" points="35,17.4 47.6,18.4 41.9,32.1 		"/>
		<polygon class="st0" points="33.4,17.4 34,34.6 41.3,34.6 		"/>
		<polygon class="st4" points="34,36.2 37.2,43.6 40.5,36.2 		"/>
		<polygon class="st1" points="38.9,45.5 47.9,36.5 47.9,46.6 		"/>
		<polygon class="st1" points="38.9,46.6 47.6,65.7 47.6,47.7 		"/>
		<polygon class="st5" points="34,39.5 22.8,41.7 36.7,45.5 		"/>
		<polygon class="st0" points="18.4,62.2 22.8,50.1 20.6,42.5 		"/>
		<polygon class="st3" points="24.1,50.4 29.6,49 23.6,68.2 		"/>
		<polygon class="st0" points="30.7,49 36.7,47.4 33.4,59.1 		"/>
	</g>
</g>
</svg>
