<?xml version="1.0" encoding="UTF-8"?>
<!DOCTYPE svg PUBLIC "-//W3C//DTD SVG 1.1//EN" "http://www.w3.org/Graphics/SVG/1.1/DTD/svg11.dtd">
<svg xmlns="http://www.w3.org/2000/svg" version="1.1" width="192px" height="192px" style="shape-rendering:geometricPrecision; text-rendering:geometricPrecision; image-rendering:optimizeQuality; fill-rule:evenodd; clip-rule:evenodd" xmlns:xlink="http://www.w3.org/1999/xlink">
<g><path style="opacity:0.048" fill="#030503" d="M 78.5,9.5 C 102.836,9.33336 127.169,9.50003 151.5,10C 161.936,18.4326 171.769,27.5993 181,37.5C 182.751,39.4899 183.751,41.8232 184,44.5C 184.667,78.1667 184.667,111.833 184,145.5C 182.702,150.798 179.369,154.131 174,155.5C 173.897,163.244 173.231,170.911 172,178.5C 163.317,190.034 154.317,190.367 145,179.5C 143.095,171.425 141.928,163.258 141.5,155C 127.167,154.333 112.833,154.333 98.5,155C 96.87,158.559 94.87,161.892 92.5,165C 80.1232,172.522 67.4565,179.522 54.5,186C 51.406,186.652 48.406,186.318 45.5,185C 34.8333,179 24.1667,173 13.5,167C 11,165.833 9.16667,164 8,161.5C 6.36909,147.594 6.03575,133.594 7,119.5C 7.88343,116.898 9.38343,114.731 11.5,113C 23.52,106.3 35.52,99.6337 47.5,93C 50.1667,92.3333 52.8333,92.3333 55.5,93C 60.7454,95.7906 66.0787,98.2906 71.5,100.5C 71.3334,73.1646 71.5,45.8313 72,18.5C 72.8328,14.5057 74.9994,11.5057 78.5,9.5 Z"/></g>
<g><path style="opacity:1" fill="#a5ecd0" d="M 100.5,13.5 C 117.167,13.5 133.833,13.5 150.5,13.5C 150.5,22.5 150.5,31.5 150.5,40.5C 159.5,40.5 168.5,40.5 177.5,40.5C 177.5,70.5 177.5,100.5 177.5,130.5C 173.833,130.5 170.167,130.5 166.5,130.5C 166.5,118.833 166.5,107.167 166.5,95.5C 164.13,88.4201 161.463,81.4201 158.5,74.5C 155.268,81.6301 152.601,88.9634 150.5,96.5C 150.5,106.5 150.5,116.5 150.5,126.5C 150.167,126.5 149.833,126.5 149.5,126.5C 128.716,119.72 113.049,106.72 102.5,87.5C 115.833,87.5 129.167,87.5 142.5,87.5C 142.5,85.5 142.5,83.5 142.5,81.5C 128.167,81.5 113.833,81.5 99.5,81.5C 98.962,79.8828 98.6287,78.2161 98.5,76.5C 112.833,76.5 127.167,76.5 141.5,76.5C 142.461,74.7354 142.795,72.7354 142.5,70.5C 126.833,70.5 111.167,70.5 95.5,70.5C 95.3713,68.7839 95.038,67.1172 94.5,65.5C 115.833,65.5 137.167,65.5 158.5,65.5C 158.5,63.8333 158.5,62.1667 158.5,60.5C 136.833,60.5 115.167,60.5 93.5,60.5C 93.7947,58.2646 93.4614,56.2646 92.5,54.5C 92.5,52.8333 92.5,51.1667 92.5,49.5C 90.8333,49.5 89.1667,49.5 87.5,49.5C 88.9187,48.5489 90.5853,48.2155 92.5,48.5C 92.9251,36.2621 95.5918,24.5954 100.5,13.5 Z"/></g>
<g><path style="opacity:1" fill="#8a94a1" d="M 150.5,13.5 C 159.833,22.1667 168.833,31.1667 177.5,40.5C 168.5,40.5 159.5,40.5 150.5,40.5C 150.5,31.5 150.5,22.5 150.5,13.5 Z"/></g>
<g><path style="opacity:1" fill="#8b98a3" d="M 87.5,49.5 C 89.1667,49.5 90.8333,49.5 92.5,49.5C 92.5,51.1667 92.5,52.8333 92.5,54.5C 90.8333,54.5 89.1667,54.5 87.5,54.5C 87.5,52.8333 87.5,51.1667 87.5,49.5 Z"/></g>
<g><path style="opacity:1" fill="#8b96a3" d="M 98.5,49.5 C 122.167,49.5 145.833,49.5 169.5,49.5C 169.5,51.1667 169.5,52.8333 169.5,54.5C 145.833,54.5 122.167,54.5 98.5,54.5C 98.5,52.8333 98.5,51.1667 98.5,49.5 Z"/></g>
<g><path style="opacity:1" fill="#8b95a2" d="M 93.5,60.5 C 115.167,60.5 136.833,60.5 158.5,60.5C 158.5,62.1667 158.5,63.8333 158.5,65.5C 137.167,65.5 115.833,65.5 94.5,65.5C 92.1667,65.5 89.8333,65.5 87.5,65.5C 87.5,63.8333 87.5,62.1667 87.5,60.5C 89.5,60.5 91.5,60.5 93.5,60.5 Z"/></g>
<g><path style="opacity:1" fill="#8c9da6" d="M 163.5,59.5 C 165.5,59.5 167.5,59.5 169.5,59.5C 169.5,61.5 169.5,63.5 169.5,65.5C 167.5,65.5 165.5,65.5 163.5,65.5C 163.5,63.5 163.5,61.5 163.5,59.5 Z"/></g>
<g><path style="opacity:1" fill="#98c2ba" d="M 95.5,71.5 C 95.5,71.1667 95.5,70.8333 95.5,70.5C 111.167,70.5 126.833,70.5 142.5,70.5C 142.795,72.7354 142.461,74.7354 141.5,76.5C 141.5,74.8333 141.5,73.1667 141.5,71.5C 126.167,71.5 110.833,71.5 95.5,71.5 Z"/></g>
<g><path style="opacity:1" fill="#8b97a3" d="M 95.5,71.5 C 110.833,71.5 126.167,71.5 141.5,71.5C 141.5,73.1667 141.5,74.8333 141.5,76.5C 127.167,76.5 112.833,76.5 98.5,76.5C 94.8333,76.5 91.1667,76.5 87.5,76.5C 87.5,74.8333 87.5,73.1667 87.5,71.5C 90.1667,71.5 92.8333,71.5 95.5,71.5 Z"/></g>
<g><path style="opacity:1" fill="#ecbe9b" d="M 166.5,95.5 C 163.827,97.1764 161.16,98.8431 158.5,100.5C 155.816,99.1582 153.15,97.8249 150.5,96.5C 152.601,88.9634 155.268,81.6301 158.5,74.5C 161.463,81.4201 164.13,88.4201 166.5,95.5 Z"/></g>
<g><path style="opacity:1" fill="#8a94a2" d="M 87.5,82.5 C 105.5,82.5 123.5,82.5 141.5,82.5C 141.5,83.8333 141.5,85.1667 141.5,86.5C 123.5,86.5 105.5,86.5 87.5,86.5C 87.5,85.1667 87.5,83.8333 87.5,82.5 Z"/></g>
<g><path style="opacity:1" fill="#8bacab" d="M 87.5,82.5 C 91.2984,81.5166 95.2984,81.1832 99.5,81.5C 113.833,81.5 128.167,81.5 142.5,81.5C 142.5,83.5 142.5,85.5 142.5,87.5C 129.167,87.5 115.833,87.5 102.5,87.5C 97.3054,87.8205 92.3054,87.4872 87.5,86.5C 105.5,86.5 123.5,86.5 141.5,86.5C 141.5,85.1667 141.5,83.8333 141.5,82.5C 123.5,82.5 105.5,82.5 87.5,82.5 Z"/></g>
<g><path style="opacity:1" fill="#df7b6c" d="M 166.5,95.5 C 166.5,107.167 166.5,118.833 166.5,130.5C 166.181,135.363 166.514,140.03 167.5,144.5C 167.827,153.682 167.493,162.682 166.5,171.5C 166.5,168.167 166.5,164.833 166.5,161.5C 161.167,161.5 155.833,161.5 150.5,161.5C 150.5,164.833 150.5,168.167 150.5,171.5C 149.507,162.682 149.173,153.682 149.5,144.5C 150.49,138.69 150.823,132.69 150.5,126.5C 150.5,116.5 150.5,106.5 150.5,96.5C 153.15,97.8249 155.816,99.1582 158.5,100.5C 161.16,98.8431 163.827,97.1764 166.5,95.5 Z"/></g>
<g><path style="opacity:1" fill="#c19260" d="M 78.5,110.5 C 81.8333,112.833 85.1667,115.167 88.5,117.5C 84.9013,121.076 80.568,123.41 75.5,124.5C 64.0609,118.612 52.7275,112.446 41.5,106C 39.9371,105.241 38.9371,104.074 38.5,102.5C 42.7314,99.7998 47.2314,97.4665 52,95.5C 60.9606,100.298 69.7939,105.298 78.5,110.5 Z"/></g>
<g><path style="opacity:1" fill="#2cb680" d="M 100.5,13.5 C 95.5918,24.5954 92.9251,36.2621 92.5,48.5C 90.5853,48.2155 88.9187,48.5489 87.5,49.5C 87.5,51.1667 87.5,52.8333 87.5,54.5C 89.1667,54.5 90.8333,54.5 92.5,54.5C 93.4614,56.2646 93.7947,58.2646 93.5,60.5C 91.5,60.5 89.5,60.5 87.5,60.5C 87.5,62.1667 87.5,63.8333 87.5,65.5C 89.8333,65.5 92.1667,65.5 94.5,65.5C 95.038,67.1172 95.3713,68.7839 95.5,70.5C 95.5,70.8333 95.5,71.1667 95.5,71.5C 92.8333,71.5 90.1667,71.5 87.5,71.5C 87.5,73.1667 87.5,74.8333 87.5,76.5C 91.1667,76.5 94.8333,76.5 98.5,76.5C 98.6287,78.2161 98.962,79.8828 99.5,81.5C 95.2984,81.1832 91.2984,81.5166 87.5,82.5C 87.5,83.8333 87.5,85.1667 87.5,86.5C 92.3054,87.4872 97.3054,87.8205 102.5,87.5C 113.049,106.72 128.716,119.72 149.5,126.5C 149.5,132.167 149.5,137.833 149.5,143.5C 129.833,143.5 110.167,143.5 90.5,143.5C 90.8264,134.651 90.493,125.984 89.5,117.5C 89.1667,117.5 88.8333,117.5 88.5,117.5C 85.1667,115.167 81.8333,112.833 78.5,110.5C 78.5,78.1667 78.5,45.8333 78.5,13.5C 85.8333,13.5 93.1667,13.5 100.5,13.5 Z"/></g>
<g><path style="opacity:1" fill="#c1905e" d="M 26.5,109.5 C 39.4612,115.98 52.1278,122.98 64.5,130.5C 64.0629,132.074 63.0629,133.241 61.5,134C 58.2221,135.809 54.8888,137.309 51.5,138.5C 40.1992,132.85 29.1992,126.683 18.5,120C 16.9751,118.991 15.3084,118.491 13.5,118.5C 13.4142,117.504 13.7476,116.671 14.5,116C 18.3674,113.567 22.3674,111.4 26.5,109.5 Z"/></g>
<g><path style="opacity:1" fill="#6c462c" d="M 38.5,102.5 C 38.9371,104.074 39.9371,105.241 41.5,106C 52.7275,112.446 64.0609,118.612 75.5,124.5C 76.7786,129.449 76.7786,134.449 75.5,139.5C 72.3388,140.913 69.3388,142.58 66.5,144.5C 65.8331,139.683 65.1665,135.017 64.5,130.5C 52.1278,122.98 39.4612,115.98 26.5,109.5C 30.4645,107.182 34.4645,104.848 38.5,102.5 Z"/></g>
<g><path style="opacity:1" fill="#966948" d="M 88.5,117.5 C 88.8333,117.5 89.1667,117.5 89.5,117.5C 89.1734,126.682 89.5067,135.682 90.5,144.5C 90.8242,148.555 90.4909,152.555 89.5,156.5C 77.7207,163.624 65.7207,170.291 53.5,176.5C 51.5197,164.211 50.853,151.544 51.5,138.5C 54.8888,137.309 58.2221,135.809 61.5,134C 63.0629,133.241 64.0629,132.074 64.5,130.5C 65.1665,135.017 65.8331,139.683 66.5,144.5C 69.3388,142.58 72.3388,140.913 75.5,139.5C 76.7786,134.449 76.7786,129.449 75.5,124.5C 80.568,123.41 84.9013,121.076 88.5,117.5 Z"/></g>
<g><path style="opacity:1" fill="#2fb47e" d="M 166.5,130.5 C 170.167,130.5 173.833,130.5 177.5,130.5C 177.5,135.167 177.5,139.833 177.5,144.5C 174.167,144.5 170.833,144.5 167.5,144.5C 166.514,140.03 166.181,135.363 166.5,130.5 Z"/></g>
<g><path style="opacity:1" fill="#684328" d="M 13.5,118.5 C 15.3084,118.491 16.9751,118.991 18.5,120C 29.1992,126.683 40.1992,132.85 51.5,138.5C 50.853,151.544 51.5197,164.211 53.5,176.5C 53.2648,177.097 52.7648,177.43 52,177.5C 39.3054,170.901 26.8054,163.901 14.5,156.5C 13.5009,143.851 13.1676,131.184 13.5,118.5 Z"/></g>
<g><path style="opacity:1" fill="#44976a" d="M 89.5,117.5 C 90.493,125.984 90.8264,134.651 90.5,143.5C 110.167,143.5 129.833,143.5 149.5,143.5C 149.5,137.833 149.5,132.167 149.5,126.5C 149.833,126.5 150.167,126.5 150.5,126.5C 150.823,132.69 150.49,138.69 149.5,144.5C 129.833,144.5 110.167,144.5 90.5,144.5C 89.5067,135.682 89.1734,126.682 89.5,117.5 Z"/></g>
<g><path style="opacity:1" fill="#e8b996" d="M 166.5,171.5 C 164.412,177.127 160.412,178.961 154.5,177C 152.181,175.853 150.848,174.019 150.5,171.5C 150.5,168.167 150.5,164.833 150.5,161.5C 155.833,161.5 161.167,161.5 166.5,161.5C 166.5,164.833 166.5,168.167 166.5,171.5 Z"/></g>
</svg>
