<svg width="1440" height="856" xmlns="http://www.w3.org/2000/svg" xmlns:xlink="http://www.w3.org/1999/xlink"><defs><linearGradient x1="0%" y1="0%" x2="100%" y2="100%" id="b"><stop stop-color="#1BCEDF" offset="0%"/><stop stop-color="#3CC7B1" offset="53.037%"/><stop stop-color="#4DC399" offset="79.815%"/><stop stop-color="#5AC088" offset="100%"/></linearGradient><path d="M149.845 922.537c112.657-122.702 249.317-183.542 409.981-182.522 240.996 1.53 574.25 123.772 895.478-135.56 214.152-172.887 315.497-286.171 304.035-339.853L1646.71 0l-615.434 7.074L0 16.402l149.845 906.135z" id="a"/></defs><g transform="translate(-160 -56)" fill="none" fill-rule="evenodd"><mask id="c" fill="#fff"><use xlink:href="#a"/></mask><use fill="url(#b)" xlink:href="#a"/><path d="M138.81 727.261c4.163 0-64.285-331.012 210.546-418.98C532.576 249.636 654.458 107.011 715-119.596L-91.58-134c-4.843 636.062-2.417 952.968 7.277 950.72 14.542-3.374 218.952-89.459 223.114-89.459zM830.41 895.234c-27.485-174.282 60.033-293.953 262.553-359.013 303.781-97.59 561.693-28.938 558.25-247.945-2.297-146.004 38.005-10.569 120.906 406.306l-566.389 351.583-375.32-150.931z" fill="#FFF" opacity=".1" mask="url(#c)"/></g></svg>